<svg xmlns="http://www.w3.org/2000/svg" width="42" height="42" viewBox="0 0 42 42"><g fill="none" fill-rule="evenodd"><path fill="#F7EFFF" d="M6.153 6.18c8.067-8.067 21.146-8.067 29.212 0 8.066 8.067 8.066 21.145 0 29.212s-21.145 8.067-29.212 0c-8.066-8.067-8.066-21.145 0-29.212"/><path fill="#9551D1" d="M25.05 34.797c-.45 0-.903-.103-1.308-.301-2.37-1.15-5.947-3.275-9.535-6.863-3.59-3.588-5.715-7.166-6.865-9.536a3.024 3.024 0 0 1 .59-3.456l2.506-2.49 5.133 5.163-2.467 2.497.053.117c.042.095 1.067 2.363 3.667 4.961 2.6 2.603 4.844 3.603 4.938 3.644l.115.05 2.546-2.464 5.273 5.28-2.496 2.506a3.022 3.022 0 0 1-2.15.892m4.868-13.835l-1.997-.328c.02-.129.478-3.297-1.982-5.678-2.458-2.378-5.389-1.87-5.512-1.845l-.384-1.988c.164-.033 4.066-.754 7.304 2.379 3.238 3.133 2.6 7.285 2.571 7.46"/><path fill="#DECAF0" d="M34.373 21.681l-1.996-.327c.007-.051.809-5.456-3.274-9.407-4.11-3.977-9.094-3.055-9.144-3.046l-.389-1.986c.245-.05 6.08-1.127 10.94 3.577 4.862 4.705 3.906 10.927 3.863 11.19m-8.677-1.202l-1.997-.327c.005-.046.18-1.344-.813-2.305-1-.968-2.207-.766-2.219-.763L20.28 15.1c.09-.02 2.247-.419 4.015 1.293 1.768 1.711 1.417 3.991 1.402 4.087"/></g></svg>