<svg xmlns="http://www.w3.org/2000/svg" width="42" height="42" viewBox="0 0 42 42"><g fill="none" fill-rule="evenodd"><path fill="#EDFEF8" d="M6.148 6.148c8.197-8.197 21.486-8.197 29.683 0s8.197 21.486 0 29.682c-8.197 8.197-21.486 8.197-29.683 0-8.197-8.196-8.197-21.485 0-29.682"/><path fill="#B7F5DF" d="M27.637 27.998H15.381c-.938 0-1.698-.76-1.698-1.698v-9.763c0-.937.76-1.697 1.698-1.697h12.256c.938 0 1.698.76 1.698 1.697V26.3c0 .938-.76 1.698-1.698 1.698"/><path fill="#50C99D" d="M30.169 11.455H16.756a1.5 1.5 0 0 0-2.846.667 1.5 1.5 0 1 0 2.846.667H30.17c.955 0 1.733.777 1.733 1.732v13.796c0 .955-.778 1.732-1.733 1.732H12.85a1.735 1.735 0 0 1-1.733-1.732v-9.619c.496-.247.838-.752.838-1.343a1.504 1.504 0 1 0-3.008 0 1.5 1.5 0 0 0 .837 1.343v9.619a3.07 3.07 0 0 0 3.066 3.066h17.32a3.07 3.07 0 0 0 3.066-3.066V14.52a3.07 3.07 0 0 0-3.066-3.066"/><path fill="#50C99D" d="M18.47 20.729a6.562 6.562 0 0 0-.148-.05c-.374-.125-.728-.243-.728-.562 0-.326.317-.472.632-.472.427 0 .817.254 1.068.467.013.01.03.02.049.015a.066.066 0 0 0 .044-.024l.63-.781a.066.066 0 0 0-.011-.092c-.592-.45-1.151-.65-1.819-.65-.905 0-1.819.485-1.819 1.567 0 1.086.844 1.401 1.531 1.658.527.193.982.359.982.77 0 .456-.423.617-.785.617-.517 0-.827-.211-1.288-.655a.065.065 0 0 0-.092 0l-.727.711a.066.066 0 0 0 0 .093c.624.626 1.29.917 2.099.917 1.01 0 2.096-.541 2.096-1.728 0-1.212-1.032-1.567-1.715-1.801m3.603-2.057h-1.095a.065.065 0 0 0-.065.065v5.364c0 .035.028.064.065.064h1.095a.065.065 0 0 0 .066-.064v-5.364a.066.066 0 0 0-.066-.065m2.357 1.058h.517c.498 0 .808.265.808.692 0 .44-.32.663-.954.663h-.371V19.73zm.547-1.058h-1.708a.065.065 0 0 0-.065.065V24.1c0 .036.029.065.065.065h1.095a.066.066 0 0 0 .066-.065v-1.957h.547c.956 0 2.072-.457 2.072-1.743 0-1.194-1.04-1.728-2.072-1.728z"/></g></svg>