<?xml version="1.0" encoding="UTF-8"?>
<svg width="356px" height="196px" viewBox="0 0 356 196" version="1.1" xmlns="http://www.w3.org/2000/svg" xmlns:xlink="http://www.w3.org/1999/xlink">
    <title>Group 124</title>
    <defs>
        <linearGradient x1="80.4923614%" y1="49.0522799%" x2="95.4606897%" y2="48.0394348%" id="linearGradient-1">
            <stop stop-color="#F5FAFF" offset="0%"></stop>
            <stop stop-color="#FFFFFF" offset="100%"></stop>
        </linearGradient>
        <path d="M3.98068708,115.571816 C46.5731921,153.556206 87.5983594,168.910773 127.056189,161.635517 C186.242933,150.722632 238.010997,159.615558 271.204995,168.444321 C293.334327,174.330163 319.854715,165.348052 350.766161,141.497987 L351.266878,8.97730798 L3.98688551,12.2991415 L3.98068708,115.571816 Z" id="path-2"></path>
        <ellipse id="path-4" cx="153.676754" cy="153.460321" rx="75.3460572" ry="75.2399422"></ellipse>
        <mask id="mask-5" maskContentUnits="userSpaceOnUse" maskUnits="objectBoundingBox" x="0" y="0" width="150.692114" height="150.479884" fill="white">
            <use xlink:href="#path-4"></use>
        </mask>
        <ellipse id="path-6" cx="153.805588" cy="153.588973" rx="153.805588" ry="153.588973"></ellipse>
        <mask id="mask-7" maskContentUnits="userSpaceOnUse" maskUnits="objectBoundingBox" x="0" y="0" width="307.611176" height="307.177946" fill="white">
            <use xlink:href="#path-6"></use>
        </mask>
        <ellipse id="path-8" cx="18.4260812" cy="18.4443441" rx="18.4260812" ry="18.4443441"></ellipse>
        <filter x="-32.6%" y="-32.5%" width="165.1%" height="165.1%" filterUnits="objectBoundingBox" id="filter-9">
            <feMorphology radius="1" operator="dilate" in="SourceAlpha" result="shadowSpreadOuter1"></feMorphology>
            <feOffset dx="0" dy="0" in="shadowSpreadOuter1" result="shadowOffsetOuter1"></feOffset>
            <feGaussianBlur stdDeviation="3" in="shadowOffsetOuter1" result="shadowBlurOuter1"></feGaussianBlur>
            <feComposite in="shadowBlurOuter1" in2="SourceAlpha" operator="out" result="shadowBlurOuter1"></feComposite>
            <feColorMatrix values="0 0 0 0 0.805738754   0 0 0 0 0.845275412   0 0 0 0 0.940750343  0 0 0 1 0" type="matrix" in="shadowBlurOuter1"></feColorMatrix>
        </filter>
        <ellipse id="path-10" cx="19.585778" cy="19.61032" rx="19.585778" ry="19.61032"></ellipse>
        <filter x="-26.8%" y="-26.8%" width="153.6%" height="153.5%" filterUnits="objectBoundingBox" id="filter-11">
            <feMorphology radius="1" operator="dilate" in="SourceAlpha" result="shadowSpreadOuter1"></feMorphology>
            <feOffset dx="0" dy="0" in="shadowSpreadOuter1" result="shadowOffsetOuter1"></feOffset>
            <feGaussianBlur stdDeviation="2.5" in="shadowOffsetOuter1" result="shadowBlurOuter1"></feGaussianBlur>
            <feComposite in="shadowBlurOuter1" in2="SourceAlpha" operator="out" result="shadowBlurOuter1"></feComposite>
            <feColorMatrix values="0 0 0 0 0.805738754   0 0 0 0 0.845275412   0 0 0 0 0.940750343  0 0 0 1 0" type="matrix" in="shadowBlurOuter1"></feColorMatrix>
        </filter>
        <ellipse id="path-12" cx="112.307952" cy="37.5958463" rx="22.0767081" ry="22.1140147"></ellipse>
        <filter x="-27.2%" y="-27.1%" width="154.4%" height="154.3%" filterUnits="objectBoundingBox" id="filter-13">
            <feMorphology radius="1" operator="dilate" in="SourceAlpha" result="shadowSpreadOuter1"></feMorphology>
            <feOffset dx="0" dy="0" in="shadowSpreadOuter1" result="shadowOffsetOuter1"></feOffset>
            <feGaussianBlur stdDeviation="3" in="shadowOffsetOuter1" result="shadowBlurOuter1"></feGaussianBlur>
            <feComposite in="shadowBlurOuter1" in2="SourceAlpha" operator="out" result="shadowBlurOuter1"></feComposite>
            <feColorMatrix values="0 0 0 0 0.805738754   0 0 0 0 0.845275412   0 0 0 0 0.940750343  0 0 0 1 0" type="matrix" in="shadowBlurOuter1"></feColorMatrix>
        </filter>
        <ellipse id="path-14" cx="17.0012849" cy="17.0374443" rx="17.0012849" ry="17.0374443"></ellipse>
        <filter x="-30.9%" y="-30.8%" width="161.8%" height="161.6%" filterUnits="objectBoundingBox" id="filter-15">
            <feMorphology radius="1" operator="dilate" in="SourceAlpha" result="shadowSpreadOuter1"></feMorphology>
            <feOffset dx="0" dy="0" in="shadowSpreadOuter1" result="shadowOffsetOuter1"></feOffset>
            <feGaussianBlur stdDeviation="2.5" in="shadowOffsetOuter1" result="shadowBlurOuter1"></feGaussianBlur>
            <feComposite in="shadowBlurOuter1" in2="SourceAlpha" operator="out" result="shadowBlurOuter1"></feComposite>
            <feColorMatrix values="0 0 0 0 0.805738754   0 0 0 0 0.845275412   0 0 0 0 0.940750343  0 0 0 1 0" type="matrix" in="shadowBlurOuter1"></feColorMatrix>
        </filter>
        <ellipse id="path-16" cx="27.9638303" cy="28.0110853" rx="27.9638303" ry="28.0110853"></ellipse>
        <filter x="-21.5%" y="-21.4%" width="142.9%" height="142.8%" filterUnits="objectBoundingBox" id="filter-17">
            <feMorphology radius="1" operator="dilate" in="SourceAlpha" result="shadowSpreadOuter1"></feMorphology>
            <feOffset dx="0" dy="0" in="shadowSpreadOuter1" result="shadowOffsetOuter1"></feOffset>
            <feGaussianBlur stdDeviation="3" in="shadowOffsetOuter1" result="shadowBlurOuter1"></feGaussianBlur>
            <feComposite in="shadowBlurOuter1" in2="SourceAlpha" operator="out" result="shadowBlurOuter1"></feComposite>
            <feColorMatrix values="0 0 0 0 0.842467716   0 0 0 0 0.876766554   0 0 0 0 0.959592957  0 0 0 1 0" type="matrix" in="shadowBlurOuter1"></feColorMatrix>
        </filter>
        <ellipse id="path-18" cx="21.5246712" cy="21.5845946" rx="21.5246712" ry="21.5845946"></ellipse>
        <filter x="-31.4%" y="-31.3%" width="162.7%" height="162.5%" filterUnits="objectBoundingBox" id="filter-19">
            <feMorphology radius="1" operator="dilate" in="SourceAlpha" result="shadowSpreadOuter1"></feMorphology>
            <feOffset dx="0" dy="0" in="shadowSpreadOuter1" result="shadowOffsetOuter1"></feOffset>
            <feGaussianBlur stdDeviation="3.5" in="shadowOffsetOuter1" result="shadowBlurOuter1"></feGaussianBlur>
            <feComposite in="shadowBlurOuter1" in2="SourceAlpha" operator="out" result="shadowBlurOuter1"></feComposite>
            <feColorMatrix values="0 0 0 0 0.840204602   0 0 0 0 0.886998926   0 0 0 0 1  0 0 0 1 0" type="matrix" in="shadowBlurOuter1"></feColorMatrix>
        </filter>
    </defs>
    <g id="Page-1" stroke="none" stroke-width="1" fill="none" fill-rule="evenodd">
        <g id="Plivo-homepage-fall-V5" transform="translate(-154.000000, -865.000000)">
            <g id="Group-124" transform="translate(153.999890, 865.002667)">
                <g id="Group-24">
                    <path d="M319.104268,49.7066687 C360.15358,74.4974709 356.694912,144.770892 355.247565,153.217066 C352.671511,168.249958 330.268842,188.901975 316.824732,190.470422 C303.380622,192.038869 272.74305,170.513966 254.214927,172.048904 C212.311559,175.520331 217.629615,224.153329 118.81771,172.048904 C96.4368613,160.247277 68.1994503,149.218041 34.1054767,138.961196 C40.7794795,117.920968 45.6481747,104.198799 48.7115625,97.7946878 C94.2156766,2.66686668 164.00004,30.9245473 176.900438,34.7974899 C208.230896,44.2034834 239.56184,44.9745419 256.532036,38.9270486 C283.833826,29.1977921 305.979725,41.7803981 319.104268,49.7066687 Z" id="Mask" fill="url(#linearGradient-1)"></path>
                    <mask id="mask-3" fill="white">
                        <use xlink:href="#path-2"></use>
                    </mask>
                    <g id="Mask" transform="translate(177.623783, 89.584585) rotate(3.000000) translate(-177.623783, -89.584585) "></g>
                    <g id="Group-190" opacity="0.200000003" mask="url(#mask-3)" stroke="#0040E4">
                        <g transform="translate(34.105477, 47.664618)" id="Oval">
                            <use mask="url(#mask-5)" stroke-width="1.78625193" stroke-linecap="round" stroke-linejoin="round" stroke-dasharray="8.038133632917345" xlink:href="#path-4"></use>
                            <ellipse stroke-width="0.893125967" cx="153.805588" cy="153.588973" rx="41.9825647" ry="41.9228088"></ellipse>
                            <use mask="url(#mask-7)" stroke-width="1.78625193" stroke-linecap="round" stroke-linejoin="round" stroke-dasharray="8.038133632917345" xlink:href="#path-6"></use>
                            <ellipse stroke-width="0.893125967" cx="153.805588" cy="153.588973" rx="112.88387" ry="112.724259"></ellipse>
                        </g>
                    </g>
                </g>
                <g id="Group-95" transform="translate(37.000110, 24.997333)">
                    <g id="Group-89">
                        <g id="Group-79-Copy" transform="translate(63.675028, 73.813084)">
                            <g id="Oval">
                                <use fill="black" fill-opacity="1" filter="url(#filter-9)" xlink:href="#path-8"></use>
                                <ellipse stroke="#EFF7FF" stroke-width="2.577373" stroke-linejoin="square" fill="#FFFFFF" fill-rule="evenodd" cx="18.4260812" cy="18.4443441" rx="17.1373947" ry="17.1556576"></ellipse>
                            </g>
                            <path d="M18.7104924,10.1899308 C13.3712116,10.1899308 9.04242876,13.5846595 9.04242876,17.7764114 C9.04242876,20.2117602 10.5205865,22.3371555 12.7830113,23.7245663 L10.9730483,27.2680272 L16.1916726,25.0688335 C16.9910217,25.2459497 17.835733,25.3640272 18.7104924,25.3640272 C24.0497731,25.3640272 28.3784399,21.9681632 28.3784399,17.7764114 C28.3784399,13.5846595 24.0497731,10.1899308 18.7104924,10.1899308 Z M15.8100965,16.8124901 L13.8764606,16.8124901 L13.8764606,18.7051365 L15.8100965,18.7051365 L15.8100965,16.8124901 Z M19.6772523,16.8124901 L19.6772523,18.7051365 L17.7436164,18.7051365 L17.7436164,16.8124901 L19.6772523,16.8124901 Z M23.5444081,16.8124901 L21.6108882,16.8124901 L21.6108882,18.7051365 L23.5444081,18.7051365 L23.5444081,16.8124901 Z" id="Shape" fill="#9B51E0"></path>
                        </g>
                        <g id="Group-34">
                            <g id="Group-79-Copy" transform="translate(0.000000, 87.429327)">
                                <g id="Oval">
                                    <use fill="black" fill-opacity="1" filter="url(#filter-11)" xlink:href="#path-10"></use>
                                    <ellipse stroke="#EFF7FF" stroke-width="2.33853365" stroke-linejoin="square" fill="#FFFFFF" fill-rule="evenodd" cx="19.585778" cy="19.61032" rx="18.4165111" ry="18.4410532"></ellipse>
                                </g>
                                <g id="MMS-Icon" transform="translate(10.995524, 12.385465)" fill="#6FCFC9" fill-rule="nonzero">
                                    <path d="M15.4624563,0 L1.7180507,0 C0.773122815,0 0,0.77409158 0,1.72020351 L0,17.2020351 L3.4361014,13.7616281 L15.4624563,13.7616281 C16.4073842,13.7616281 17.180507,12.9875365 17.180507,12.0414246 L17.180507,1.72020351 C17.180507,0.77409158 16.4073842,0 15.4624563,0 Z M3.11826202,9.62453864 L5.25723514,6.87221302 C5.42904021,6.65718759 5.75546984,6.64858657 5.92727491,6.86361201 L7.73122815,9.03966945 L10.3942067,5.60786344 C10.5660118,5.38423699 10.9096219,5.38423699 11.081427,5.61646446 L14.096606,9.64174068 C14.3113623,9.92557426 14.1051962,10.3298221 13.7529958,10.3298221 L3.4532819,10.3298221 C3.10108151,10.3212211 2.89491543,9.90837222 3.11826202,9.62453864 Z" id="Shape"></path>
                                </g>
                            </g>
                            <g id="Group-128" transform="translate(101.503214, 0.000000)">
                                <g id="Oval">
                                    <use fill="black" fill-opacity="1" filter="url(#filter-13)" xlink:href="#path-12"></use>
                                    <ellipse stroke="#EFF7FF" stroke-width="2.577373" stroke-linejoin="square" fill="#FFFFFF" fill-rule="evenodd" cx="112.307952" cy="37.5958463" rx="20.7880216" ry="20.8253282"></ellipse>
                                </g>
                                <g id="Combined-Shape-5" transform="translate(98.477887, 31.995785)" fill="#0040E4" fill-rule="nonzero">
                                    <path d="M7.69586832,0 C8.19883642,0 8.60654747,0.396068496 8.60654747,0.884660609 L8.60654747,0.884660609 L8.60654747,11.5007472 C8.60654747,11.9893525 8.19883642,12.3854653 7.69586832,12.3854653 C7.19290023,12.3854653 6.78518917,11.9893525 6.78518917,11.5007472 L6.78518917,11.5007472 L6.78518917,0.884660609 C6.78518917,0.396068496 7.19290023,0 7.69586832,0 Z M21.1673834,0 C21.6703515,0 22.0780626,0.396068496 22.0780626,0.884660609 L22.0780626,0.884660609 L22.0780626,11.5007472 C22.0780626,11.9893525 21.6703515,12.3854653 21.1673834,12.3854653 C20.6644153,12.3854653 20.2567043,11.9893525 20.2567043,11.5007472 L20.2567043,11.5007472 L20.2567043,0.884660609 C20.2567043,0.396068496 20.6644153,0 21.1673834,0 Z M4.30327374,1.76933449 C4.80624183,1.76933449 5.21395289,2.16540298 5.21395289,2.65400837 L5.21395289,2.65400837 L5.21395289,9.7313994 C5.21395289,10.2200048 4.80624183,10.6160733 4.30327374,10.6160733 C3.80030564,10.6160733 3.39259459,10.2200048 3.39259459,9.7313994 L3.39259459,9.7313994 L3.39259459,2.65400837 C3.39259459,2.16540298 3.80030564,1.76933449 4.30327374,1.76933449 Z M17.7747888,1.76933449 C18.2777569,1.76933449 18.685468,2.16540298 18.685468,2.65400837 L18.685468,2.65400837 L18.685468,9.7313994 C18.685468,10.2200048 18.2777569,10.6160733 17.7747888,10.6160733 C17.2718207,10.6160733 16.8641097,10.2200048 16.8641097,9.7313994 L16.8641097,9.7313994 L16.8641097,2.65400837 C16.8641097,2.16540298 17.2718207,1.76933449 17.7747888,1.76933449 Z M11.0884629,1.76933449 C11.591431,1.76933449 11.9991421,2.16540298 11.9991421,2.65400837 L11.9991421,2.65400837 L11.9991421,9.7313994 C11.9991421,10.2200048 11.591431,10.6160733 11.0884629,10.6160733 C10.5854948,10.6160733 10.1777838,10.2200048 10.1777838,9.7313994 L10.1777838,9.7313994 L10.1777838,2.65400837 C10.1777838,2.16540298 10.5854948,1.76933449 11.0884629,1.76933449 Z M24.559978,1.76933449 C25.0629461,1.76933449 25.4706572,2.16540298 25.4706572,2.65400837 L25.4706572,2.65400837 L25.4706572,9.7313994 C25.4706572,10.2200048 25.0629461,10.6160733 24.559978,10.6160733 C24.0570099,10.6160733 23.6492989,10.2200048 23.6492989,9.7313994 L23.6492989,9.7313994 L23.6492989,2.65400837 C23.6492989,2.16540298 24.0570099,1.76933449 24.559978,1.76933449 Z M14.4810575,3.53868225 C14.9840256,3.53868225 15.3917366,3.93475074 15.3917366,4.42335613 L15.3917366,4.42335613 L15.3917366,7.96205164 C15.3917366,8.45065703 14.9840256,8.84672552 14.4810575,8.84672552 C13.9780894,8.84672552 13.5703783,8.45065703 13.5703783,7.96205164 L13.5703783,7.96205164 L13.5703783,4.42335613 C13.5703783,3.93475074 13.9780894,3.53868225 14.4810575,3.53868225 Z M27.9525726,3.53868225 C28.4555407,3.53868225 28.8632517,3.93475074 28.8632517,4.42335613 L28.8632517,4.42335613 L28.8632517,7.96205164 C28.8632517,8.45065703 28.4555407,8.84672552 27.9525726,8.84672552 C27.4496045,8.84672552 27.0418934,8.45065703 27.0418934,7.96205164 L27.0418934,7.96205164 L27.0418934,4.42335613 C27.0418934,3.93475074 27.4496045,3.53868225 27.9525726,3.53868225 Z M0.91067915,3.53868225 C1.41364725,3.53868225 1.8213583,3.93475074 1.8213583,4.42335613 L1.8213583,4.42335613 L1.8213583,7.96205164 C1.8213583,8.45065703 1.41364725,8.84672552 0.91067915,8.84672552 C0.407711056,8.84672552 0,8.45065703 0,7.96205164 L0,7.96205164 L0,4.42335613 C0,3.93475074 0.407711056,3.53868225 0.91067915,3.53868225 Z" id="Combined-Shape"></path>
                                </g>
                                <g id="Group-130" transform="translate(99.243517, 73.309399)">
                                    <g id="Group-79-Copy" transform="translate(17.037444, 17.001285) scale(1, -1) rotate(-270.000000) translate(-17.037444, -17.001285) translate(0.036159, -0.036159)">
                                        <g id="Oval">
                                            <use fill="black" fill-opacity="1" filter="url(#filter-15)" xlink:href="#path-14"></use>
                                            <ellipse stroke="#EFF7FF" stroke-width="1.94959858" stroke-linejoin="square" fill="#FFFFFF" fill-rule="evenodd" cx="17.0012849" cy="17.0374443" rx="16.0264857" ry="16.062645"></ellipse>
                                        </g>
                                        <path d="M21.5375922,20.3028002 L19.6502747,20.0865577 C19.1969476,20.034731 18.7511106,20.1911047 18.4316237,20.5110006 L17.0644198,21.8808342 C14.9614955,20.8085574 13.2376219,19.0884468 12.167613,16.9742744 L13.542307,15.5963988 C13.8617938,15.2765029 14.0178368,14.8297209 13.9658522,14.3748968 L13.7503346,12.4984125 C13.6611671,11.7469252 13.0295944,11.1804056 12.2716714,11.1804056 L10.9861448,11.1804056 C10.1464553,11.1804056 9.44800691,11.8809598 9.49999151,12.7218035 C9.89384397,19.0812982 14.9689856,24.1594223 21.3072728,24.5543776 C22.1469623,24.6062043 22.8454825,23.9065437 22.8454825,23.0648064 L22.8454825,21.7771807 C22.8528115,21.0247999 22.2881143,20.3921566 21.5375922,20.3028002 Z M16.4269226,17.3542571 L19.5024135,17.3542571 C19.925267,17.3542571 20.2712632,17.0075543 20.2712632,16.5831902 C20.2712632,16.1597505 19.925267,15.8130478 19.5024135,15.8130478 L18.2798937,15.8130478 L21.593799,12.4920977 C21.8936624,12.191622 21.8936624,11.7062381 21.593799,11.4057624 C21.2939357,11.1052867 20.809541,11.1052867 20.5096776,11.4057624 L17.1957723,14.7267125 L17.1957723,13.5016961 C17.1957723,13.0782565 16.8497761,12.7315537 16.4269226,12.7315537 C16.0039769,12.7315537 15.6579807,13.0782565 15.6579807,13.5016961 L15.6579807,16.5831902 C15.6579807,17.0075543 16.0039769,17.3542571 16.4269226,17.3542571 Z" id="Shape" fill="#56CCF2" fill-rule="nonzero"></path>
                                    </g>
                                </g>
                                <g id="Group-171">
                                    <g id="Oval">
                                        <use fill="black" fill-opacity="1" filter="url(#filter-17)" xlink:href="#path-16"></use>
                                        <ellipse stroke="#EFF7FF" stroke-width="2.577373" stroke-linejoin="square" fill="#FFFFFF" fill-rule="evenodd" cx="27.9638303" cy="28.0110853" rx="26.6751438" ry="26.7223988"></ellipse>
                                    </g>
                                    <g id="whatsapp-logo" transform="translate(15.659745, 15.686208)" fill="#25D366">
                                        <path d="M17.9416517,14.7715358 C17.6355261,14.6194374 16.1303264,13.8802064 15.8496293,13.7788075 C15.5690961,13.6774085 15.3650124,13.6250736 15.1609286,13.9309059 C14.9568449,14.2367382 14.3700221,14.9236342 14.1913668,15.1280676 C14.0128755,15.3308654 13.8342202,15.3570329 13.5282587,15.2049345 C13.221969,15.0512006 12.2355096,14.7290137 11.0661294,13.6888568 C10.1559553,12.8809362 9.54157131,11.881666 9.36308006,11.5758337 C9.18442475,11.2700015 9.34404974,11.1048193 9.4972766,10.9527209 C9.63508235,10.8153417 9.80340222,10.5961892 9.95646503,10.4179233 C10.1095278,10.2396574 10.1605488,10.112091 10.2625906,9.90929312 C10.3646325,9.70485977 10.3136116,9.5265939 10.2371622,9.37449549 C10.1605488,9.22076161 9.54829754,7.71940312 9.29319286,7.10773855 C9.04465036,6.51242865 8.7923346,6.59256652 8.60432819,6.58438919 C8.426001,6.57457639 8.22158914,6.57294092 8.01766945,6.57294092 C7.81358571,6.57294092 7.48186759,6.64980786 7.20117042,6.95564014 C6.92063729,7.25983696 6.12973075,7.99906794 6.12973075,9.50042643 C6.12973075,11.0034204 7.22676291,12.4540794 7.37982572,12.6585127 C7.53288853,12.8613106 9.53861833,15.9441655 12.6097178,17.2672581 C13.3402523,17.5812677 13.9105056,17.7693464 14.3550931,17.9099965 C15.0884166,18.1422328 15.7559542,18.1095235 16.2833892,18.0310211 C16.8715245,17.9427059 18.0947145,17.2917901 18.3498192,16.5787266 C18.6049239,15.8656631 18.6049239,15.255634 18.5283104,15.1280676 C18.4518611,15.0005012 18.2477773,14.9236342 17.9416517,14.7715358 Z M12.3555974,22.3748208 L12.3514961,22.3748208 C10.5240935,22.3748208 8.73179851,21.8858162 7.16803142,20.960142 L6.79628401,20.739354 L2.94182453,21.748437 L3.97061004,18.0015827 L3.72846566,17.617248 C2.70903126,16.0014068 2.17076858,14.1320683 2.1714242,12.2153013 C2.17372156,6.61709852 6.74214604,2.06232359 12.3595347,2.06232359 C15.0797217,2.06395906 17.6366745,3.12210605 19.5595568,5.04050856 C21.4821109,6.95891108 22.5404263,9.51023923 22.5394426,12.2234786 C22.5371452,17.8200459 17.9687207,22.3748208 12.3555974,22.3748208 Z M21.0227585,3.58167221 C18.7095906,1.27402861 15.6330774,0.00163546676 12.3554334,0 C5.60196756,0 0.105322962,5.47881366 0.10269809,12.2136658 C0.101877818,14.36594 0.666061098,16.4675148 1.73815698,18.3204987 L0,24.6497551 L6.49524409,22.9505051 C8.28491416,23.9236078 10.299831,24.4371444 12.3505117,24.4387798 L12.3555974,24.4387798 L12.3555974,24.4387798 C19.108407,24.4387798 24.6055438,18.9583307 24.6081697,12.2234786 C24.6094811,8.95908693 23.3360904,5.89095128 21.0227585,3.58167221 Z" id="Shape"></path>
                                    </g>
                                </g>
                            </g>
                        </g>
                    </g>
                    <g id="Group-41-Copy" transform="translate(241.950658, 117.689171)">
                        <g id="Oval">
                            <use fill="black" fill-opacity="1" filter="url(#filter-19)" xlink:href="#path-18"></use>
                            <ellipse stroke="#EFF7FF" stroke-width="2.0974928" stroke-linejoin="square" fill="#FFFFFF" fill-rule="evenodd" cx="21.5246712" cy="21.5845946" rx="20.4759248" ry="20.5358482"></ellipse>
                        </g>
                        <path d="M29.6471521,12.2176951 L13.4021903,12.2176951 C12.2853058,12.2176951 11.3715244,13.1340589 11.3715244,14.2532445 L11.3715244,32.5805202 L15.4328563,28.5081996 L29.6471521,28.5081996 C30.7640367,28.5081996 31.677818,27.5918358 31.677818,26.4714283 L31.677818,14.2532445 C31.677818,13.1340589 30.7640367,12.2176951 29.6471521,12.2176951 Z M17.4634125,21.3809664 L15.9404405,21.3809664 L15.9404405,19.8537545 L17.4634125,19.8537545 L17.4634125,21.3809664 Z M22.0323286,21.3809664 L20.5093566,21.3809664 L20.5093566,19.8537545 L22.0323286,19.8537545 L22.0323286,21.3809664 Z M27.108902,21.3809664 L25.58593,21.3809664 L25.58593,19.8537545 L27.108902,19.8537545 L27.108902,21.3809664 Z" id="Shape" fill="#0040E4" fill-rule="nonzero"></path>
                    </g>
                    <g id="Group-83" transform="translate(120.028960, 80.301743)">
                        <path d="M39.0820099,39.6001508 L36.3954536,30.5936768 L27.4936327,30.5936768 L24.8069174,39.6001508 C24.8069174,39.6001508 21.5920486,49.759182 31.9444636,49.759182 C42.2970377,49.759182 39.0820099,39.6001508 39.0820099,39.6001508" id="Fill-27" fill="#F4AB9A"></path>
                        <path d="M26.2003558,34.9289634 C30.6190715,41.1906194 38.5348573,37.7657831 38.5348573,37.7657831 L37.5044649,34.3116014 L31.9443842,31.8266083 L26.3846214,34.3114428 L26.2003558,34.9289634 Z" id="Fill-29" fill="#F19D8A"></path>
                        <path d="M23.3830808,9.16755115 C20.4098716,12.3127345 20.5707661,20.2067832 21.5561653,25.7509858 C22.8457059,33.0060997 28.8280552,36.8660398 31.9445113,36.8660398 C35.0609675,36.8660398 41.0433167,33.0060997 42.3328574,25.7509858 C43.3182566,20.2067832 43.479151,12.3127345 40.5059419,9.16755115 L23.3830808,9.16755115 Z" id="Fill-31" fill="#F4AB9A"></path>
                        <path d="M19.2994295,4.48560908 C22.8100134,12.8488655 30.8792214,17.566482 41.9434196,9.56076252 C36.4580626,2.23410953 26.1414195,1.37627456 19.2994295,4.48560908" id="Fill-33" fill="#0C0629"></path>
                        <path d="M25.245816,1.26906105 C27.0369594,6.59420487 33.896756,10.7579087 37.6070272,12.1396765 C41.9433878,12.6701129 42.9721903,18.5734388 42.9721903,18.5734388 C46.201527,13.6835574 44.7328084,2.77011362 40.7207805,3.77086821 C37.4610775,-1.06301915 28.3802376,-0.47325761 25.245816,1.26906105" id="Fill-35" fill="#0C0629"></path>
                        <path d="M25.5224209,11.7605191 C22.0574661,13.0675754 20.916578,18.5689497 20.916578,18.5689497 C19.8305402,14.4794816 21.2919454,9.69016744 22.5546173,8.40357361 C23.8172892,7.11697977 25.5224209,11.7605191 25.5224209,11.7605191" id="Fill-37" fill="#0C0629"></path>
                        <path d="M21.3278287,18.7459099 C19.7158632,17.8612676 17.8978509,19.1748274 18.9904071,23.0166844 C19.9417832,26.3620505 21.6494587,26.1671024 21.8919133,25.5811478 C22.1610777,24.9307922 21.3278287,18.7459099 21.3278287,18.7459099" id="Fill-39" fill="#FF95A9"></path>
                        <path d="M42.5611463,18.7459099 C44.1731118,17.8612676 45.9911241,19.1748274 44.8985679,23.0166844 C43.9471918,26.3620505 42.2395163,26.1671024 41.9970617,25.5811478 C41.7278973,24.9307922 42.5611463,18.7459099 42.5611463,18.7459099" id="Fill-41" fill="#FF95A9"></path>
                        <path d="M22.1962773,11.986827 C19.8594917,15.7027372 19.9566325,18.702463 19.9566325,18.702463 L20.5025926,18.8082647 C20.5025926,18.8082647 20.6595125,14.678665 22.1962773,11.986827" id="Fill-43" fill="#7E75EE"></path>
                        <path d="M42.4493628,25.6800177 L42.208657,27.7243552 C42.1910095,27.8989995 42.1633458,28.0560366 42.137908,28.2159289 L42.1186706,28.3361654 L42.089417,28.4541812 L42.030751,28.6903713 C41.9881425,28.8467739 41.9291585,28.9982592 41.8782828,29.1525997 C41.8100775,29.2996435 41.7541142,29.4530323 41.6770057,29.5961105 C41.3808136,30.1750857 40.9725359,30.6977496 40.4804722,31.1282533 C39.9855468,31.5555845 39.4046096,31.8828245 38.7834488,32.0937935 C38.6305037,32.1545462 38.4681783,32.184526 38.3099866,32.2289406 C38.150841,32.2701826 37.9866078,32.2876312 37.8250774,32.31888 L36.8027933,32.4495856 L34.7563173,32.7094106 L30.6632062,33.2293779 L30.7004091,33.5444038 L34.8027414,33.1032724 L36.853987,32.8827859 L37.8802457,32.7714323 C38.0568799,32.7419284 38.2363758,32.7251143 38.4109431,32.6838723 C38.5845566,32.6394577 38.7626216,32.6088434 38.9313064,32.5460286 C39.6154259,32.3288733 40.2607527,31.9816468 40.8149801,31.5211633 C41.3665048,31.0576659 41.8297918,30.488684 42.1709772,29.85197 C42.2592148,29.6942984 42.3259892,29.5256818 42.4038926,29.3627756 C42.4647845,29.1927314 42.5329898,29.0245907 42.5840245,28.8512154 L42.6547735,28.5893282 L42.6895916,28.4581468 L42.7139166,28.3245859 C42.7463498,28.1466105 42.780373,27.9657799 42.8000873,27.7993841 L43.0802218,25.7601225 L42.4493628,25.6800177 Z" id="Fill-45" fill="#3F327A"></path>
                        <path d="M30.894961,33.7795788 C31.8926022,33.8820495 32.8981927,33.8820495 33.8958339,33.7795788 C34.3373398,33.7342125 34.6400503,33.3601787 34.5740709,32.9715515 C34.5084094,32.5822899 34.1400373,32.3197683 33.7490892,32.3594241 C32.8490658,32.4520601 31.9417291,32.4519015 31.0415467,32.3594241 C30.6505986,32.3196097 30.2823855,32.5824485 30.216565,32.9715515 C30.1507446,33.3600201 30.4532962,33.7343711 30.894961,33.7795788" id="Fill-47" fill="#3F327A"></path>
                        <path d="M33.9958206,7.10002294 C35.5152559,7.24817713 37.0482051,7.56399618 38.4433128,8.2440144 C39.1369715,8.5860063 39.7894527,9.01698589 40.3668922,9.53251171 C40.940198,10.0521617 41.4365543,10.6514407 41.8494426,11.298148 C42.67824,12.5956868 43.1722114,14.0588284 43.4971801,15.5310116 C43.819605,17.0087465 43.9636469,18.5112267 44.0310573,20.0105344 L43.3838227,20.0300451 C43.344394,18.5564343 43.2294466,17.0825064 42.9421578,15.6423651 C42.6528021,14.2072999 42.2004851,12.7923798 41.4356004,11.5473452 C41.0545094,10.9261763 40.5959919,10.3521185 40.0630687,9.85150323 C39.5261708,9.3550122 38.9159801,8.93561212 38.2593653,8.59710993 C36.9391402,7.92407114 35.453887,7.58667932 33.9616384,7.41552474 L33.0377671,7.33716482 L33.9958206,7.10002294 Z" id="Fill-49" fill="#7E75EE"></path>
                        <path d="M42.6376189,25.4225721 C42.4861046,25.3711781 42.3347493,25.3197842 42.183394,25.2682316 C42.87435,23.2421358 43.135883,21.0948518 42.9516175,18.9624783 C43.1110811,18.9486781 43.2702267,18.9351951 43.4296903,18.9213949 C45.1208312,18.7053499 46.7161031,20.3605844 46.4467798,22.5859111 C46.1737997,24.8110791 44.2276442,26.0364444 42.6376189,25.4225721" id="Fill-51" fill="#5D53DB"></path>
                        <path d="M42.5993508,26.4401407 L42.5993508,26.4401407 C42.0061716,26.1880883 41.7300118,25.5015665 41.9247705,24.8902322 C42.5066616,23.0760572 42.7391,21.1682944 42.6098439,19.2678282 C42.5675535,18.6273072 43.0004741,18.0269179 43.6368976,17.92413 C44.2717312,17.8213421 44.8851017,18.3508268 44.9362954,19.1103153 C45.0855839,21.3036001 44.8172144,23.5054505 44.1456548,25.5991198 C43.9135343,26.3245043 43.1909401,26.691876 42.5993508,26.4401407" id="Fill-53" fill="#4E44CF"></path>
                        <path d="M21.2514356,25.4225721 C21.4027909,25.3711781 21.5541462,25.3197842 21.7056604,25.2682316 C21.0147045,23.2421358 20.7530125,21.0948518 20.937278,18.9624783 C20.7779734,18.9486781 20.6186688,18.9351951 20.4593642,18.9213949 C18.7680643,18.7053499 17.1729513,20.3605844 17.4422747,22.5859111 C17.7150958,24.8110791 19.6614102,26.0364444 21.2514356,25.4225721" id="Fill-57" fill="#5D53DB"></path>
                        <path d="M15.6097311,79.5752446 C10.7819428,78.5887661 6.17975654,76.8948275 1.81938896,74.4423522 C0.385011495,73.635594 -0.309760121,71.9513314 0.131745778,70.3687465 C2.48840474,61.9226886 5.36208825,53.9537698 8.96758727,46.6594759 C9.7967026,44.9820342 11.2277413,43.6817988 12.9699169,42.9913114 C15.4540832,42.0067364 19.5312956,40.6154512 24.8069492,39.6001033 C23.7240912,44.3973486 29.7234521,48.3029723 31.9444954,48.3029723 C34.1653798,48.3029723 40.1505909,44.4263767 39.0820417,39.6001033 C44.3576953,40.6154512 48.4349077,42.0067364 50.9190739,42.9913114 C52.6612495,43.6817988 54.0922883,44.9820342 54.9214036,46.6594759 C58.5267436,53.9537698 61.4005861,61.9226886 63.7572451,70.3687465 C64.198751,71.9513314 63.5039794,73.635594 62.0696019,74.4423522 C57.7090754,76.8948275 53.1070481,78.5887661 48.2792598,79.5752446 L15.6097311,79.5752446 Z" id="Fill-59" fill="#0040E4"></path>
                        <path d="M1.81935716,74.4422888 C5.78050929,76.6701534 9.9430975,78.2655869 14.2909051,79.2798245 C14.6761298,77.7142122 15.48251,73.1112804 12.6364902,70.0327188 C11.9916404,66.4944668 1.6392253,65.9940102 0.131713981,70.368683 C-0.309791918,71.951268 0.385138684,73.6355305 1.81935716,74.4422888" id="Fill-61" fill="#F4AB9A"></path>
                        <path d="M62.0922098,74.4422888 C58.1310577,76.6701534 53.9684695,78.2655869 49.6206619,79.2798245 C49.2354372,77.7142122 48.429057,73.1112804 51.2749178,70.0327188 C51.9197677,66.4944668 62.2723417,65.9940102 63.779694,70.368683 C64.2213589,71.951268 63.5264283,73.6355305 62.0922098,74.4422888" id="Fill-64" fill="#F4AB9A"></path>
                        <polygon id="Fill-66" fill="#0029B7" points="18.0557088 56.6749213 18.3243962 60.5884761 16.6855619 60.5884761"></polygon>
                        <polygon id="Fill-68" fill="#0029B7" points="45.8332662 56.6749213 45.5645788 60.5884761 47.2034131 60.5884761"></polygon>
                        <path d="M31.9445272,47.3378286 C29.7234839,47.3378286 25.2457842,44.5143333 24.806981,39.6001826 C24.1438478,39.7277157 23.4996339,39.8612766 22.8751344,39.9992789 C22.7781525,40.9043836 22.8225098,41.9165591 23.1484324,42.992977 C24.64084,47.5440389 28.9923043,50.340251 31.9445272,50.340251 C34.8969091,50.340251 39.2485325,47.5440389 40.74094,42.992977 C41.0667037,41.9165591 41.1112199,40.9045422 41.0142381,39.9994375 C40.3895796,39.8614352 39.7453657,39.7277157 39.0820734,39.6001826 C38.6431113,44.5143333 34.1654116,47.3378286 31.9445272,47.3378286" id="Fill-70" fill="#FFFFFF"></path>
                        <path d="M47.9590925,86.6982569 L15.9255104,86.6982569 C15.6728806,86.6982569 15.4510942,86.5302748 15.382889,86.2877398 L15.2145221,85.6879849 C15.1518814,85.465595 15.3196123,85.24495 15.5510968,85.24495 L48.3374807,85.24495 C48.5692832,85.24495 48.7370141,85.4659123 48.6740554,85.6886194 L48.5053706,86.285519 C48.4363704,86.529799 48.2131531,86.6982569 47.9590925,86.6982569" id="Fill-72" fill="#78C0FF"></path>
                        <path d="M51.8531682,60.3471148 L12.0359181,60.3471148 C11.5780366,60.3471148 11.1543372,60.5894913 10.9230117,60.9839875 L10.228717,62.1671589 L53.6605283,62.1671589 L52.9662336,60.9839875 C52.7347491,60.5894913 52.3112087,60.3471148 51.8531682,60.3471148" id="Fill-75" fill="#FFFFFF"></path>
                        <path d="M47.7036169,85.5654326 L16.1853104,85.5654326 C15.499919,85.5654326 14.9072168,85.0892453 14.7611081,84.4211239 L10.1072512,63.1394248 C9.90629209,62.2208371 10.6075822,61.3520571 11.550055,61.3520571 L52.3388723,61.3520571 C53.2813451,61.3520571 53.9826352,62.2208371 53.7816761,63.1394248 L49.1278192,84.4211239 C48.9818694,85.0892453 48.3890083,85.5654326 47.7036169,85.5654326" id="Fill-77" fill="#A9D7FF"></path>
                        <path d="M48.26573,84.2330918 L51.8352981,67.9102752 C46.0712374,77.063 29.3760504,85.4316496 14.7101688,80.0574912 L15.6232291,84.2330918 C15.6804643,84.4949789 15.9167184,84.6850096 16.1850879,84.6850096 L47.7038712,84.6850096 C47.9722407,84.6850096 48.2084948,84.4949789 48.26573,84.2330918" id="Fill-79" fill="#9BD0FF"></path>
                        <path d="M34.757462,75.1647705 L29.1315607,75.1647705 C28.1871801,75.1647705 27.4216594,74.4009991 27.4216594,73.4587765 C27.4216594,72.5167126 28.1871801,71.7527826 29.1315607,71.7527826 L34.757462,71.7527826 C35.7018426,71.7527826 36.4673633,72.5167126 36.4673633,73.4587765 C36.4673633,74.4009991 35.7018426,75.1647705 34.757462,75.1647705" id="Fill-81" fill="#FFFFFF"></path>
                        <path d="M21.2896242,26.4401407 L21.2896242,26.4401407 C21.8828034,26.1880883 22.1589632,25.5015665 21.9642045,24.8902322 C21.3823134,23.0760572 21.149875,21.1682944 21.2791311,19.2678282 C21.3214215,18.6273072 20.8885009,18.0269179 20.2520774,17.92413 C19.6172437,17.8213421 19.0038733,18.3508268 18.9526796,19.1103153 C18.8033911,21.3036001 19.0717606,23.5054505 19.7433202,25.5991198 C19.9754406,26.3245043 20.6980349,26.691876 21.2896242,26.4401407" id="Fill-55" fill="#4E44CF"></path>
                    </g>
                </g>
            </g>
        </g>
    </g>
</svg>