<?xml version="1.0" encoding="UTF-8"?>
<svg width="160px" height="126px" viewBox="0 0 160 126" version="1.1" xmlns="http://www.w3.org/2000/svg" xmlns:xlink="http://www.w3.org/1999/xlink">
    <title>ic_voice_pattern3</title>
    <defs>
        <polygon id="path-1" points="-2.27373675e-13 0 158.492376 0 158.492376 91.9070671 -2.27373675e-13 91.9070671"></polygon>
        <polygon id="path-3" points="2.27373675e-13 -2.27373675e-13 89.1010065 -2.27373675e-13 89.1010065 112.279277 2.27373675e-13 112.279277"></polygon>
        <polygon id="path-5" points="0 0 71.6287 0 71.6287 70.852 0 70.852"></polygon>
    </defs>
    <g id="Page-1" stroke="none" stroke-width="1" fill="none" fill-rule="evenodd">
        <g id="Desktop-HD" transform="translate(-1112.000000, -2712.000000)">
            <g id="Group-387" transform="translate(-10.000000, 2651.000000)">
                <g id="ic_voice_pattern3" transform="translate(1122.447224, 61.905454)">
                    <g id="Group-101" transform="translate(-0.000000, 0.000000)">
                        <g id="Group-310" opacity="0.05" transform="translate(-0.000000, 0.000000)">
                            <mask id="mask-2" fill="white">
                                <use xlink:href="#path-1"></use>
                            </mask>
                            <g id="Clip-309"></g>
                            <path d="M207.300876,-17.1125 C212.642876,68.2725 263.992876,5.2945 259.685876,34.5425 C255.376876,63.7905 236.766876,92.8025 211.264876,88.3215 C185.761876,83.8395 178.524876,66.8575 157.156876,69.4515 C135.789876,72.0465 108.563876,107.6625 93.3998761,83.6035 C78.2368761,59.5445 55.1458761,51.0535 24.3008761,54.8275 C-6.54412389,58.6015 -1.37412389,14.7295 4.31287611,2.9365 C9.99787611,-8.8575 52.5608761,-31.2645 65.8288761,-44.4735 C79.0978761,-57.6815 201.958876,-102.4975 207.300876,-17.1125" id="Fill-308" fill="#9551D1" mask="url(#mask-2)"></path>
                        </g>
                        <g id="Group-313" opacity="0.05" transform="translate(69.391370, 12.741090)">
                            <mask id="mask-4" fill="white">
                                <use xlink:href="#path-3"></use>
                            </mask>
                            <g id="Clip-312"></g>
                            <path d="M16.3011065,0.804609811 C45.3391065,-4.96939019 70.6651065,21.4006098 86.2071065,45.7376098 C125.506106,107.27161 39.4261065,139.51761 12.6711065,82.9056098 C-0.248893532,55.5666098 -9.22589353,9.73460981 16.3011065,0.804609811" id="Fill-311" fill="#9551D1" mask="url(#mask-4)"></path>
                        </g>
                        <g id="Group-316" opacity="0.36" transform="translate(87.196676, 28.253300)">
                            <mask id="mask-6" fill="white">
                                <use xlink:href="#path-5"></use>
                            </mask>
                            <g id="Clip-315"></g>
                            <path d="M81.363,69.934 C81.363,70.441 80.952,70.852 80.445,70.852 C79.937,70.852 79.526,70.441 79.526,69.934 C79.526,69.428 79.937,69.017 80.445,69.017 C80.952,69.017 81.364,69.427 81.364,69.934 M69.056,69.934 C69.056,70.441 68.644,70.852 68.136,70.852 C67.63,70.852 67.218,70.441 67.218,69.934 C67.218,69.428 67.63,69.017 68.137,69.017 C68.644,69.017 69.055,69.427 69.055,69.934 M56.749,69.934 C56.749,70.441 56.337,70.852 55.83,70.852 C55.322,70.852 54.911,70.441 54.911,69.934 C54.911,69.428 55.322,69.017 55.83,69.017 C56.337,69.017 56.749,69.427 56.749,69.934 M44.441,69.934 C44.441,70.441 44.029,70.852 43.522,70.852 C43.013,70.852 42.603,70.441 42.603,69.934 C42.603,69.428 43.013,69.017 43.522,69.017 C44.029,69.017 44.441,69.427 44.441,69.934 M32.134,69.934 C32.134,70.441 31.721,70.852 31.215,70.852 C30.707,70.852 30.296,70.441 30.296,69.934 C30.296,69.428 30.707,69.017 31.215,69.017 C31.721,69.017 32.134,69.427 32.134,69.934 M19.825,69.934 C19.825,70.441 19.414,70.852 18.906,70.852 C18.399,70.852 17.987,70.441 17.987,69.934 C17.987,69.428 18.399,69.017 18.906,69.017 C19.414,69.017 19.825,69.427 19.825,69.934 M7.517,69.934 C7.517,70.441 7.106,70.852 6.599,70.852 C6.092,70.852 5.679,70.441 5.679,69.934 C5.679,69.428 6.092,69.017 6.599,69.017 C7.106,69.017 7.517,69.427 7.517,69.934 M75.683,60.48 C75.683,60.987 75.271,61.398 74.764,61.398 C74.257,61.398 73.845,60.987 73.845,60.48 C73.845,59.974 74.257,59.562 74.764,59.562 C75.271,59.562 75.683,59.973 75.683,60.48 M63.376,60.48 C63.376,60.987 62.965,61.398 62.457,61.398 C61.949,61.398 61.538,60.987 61.538,60.48 C61.538,59.974 61.949,59.562 62.457,59.562 C62.965,59.562 63.376,59.973 63.376,60.48 M51.067,60.48 C51.067,60.987 50.657,61.398 50.149,61.398 C49.641,61.398 49.229,60.987 49.229,60.48 C49.229,59.974 49.641,59.562 50.149,59.562 C50.657,59.562 51.067,59.973 51.067,60.48 M38.759,60.48 C38.759,60.987 38.348,61.398 37.841,61.398 C37.334,61.398 36.923,60.987 36.923,60.48 C36.923,59.974 37.334,59.562 37.841,59.562 C38.348,59.562 38.76,59.973 38.76,60.48 M26.453,60.48 C26.453,60.987 26.042,61.398 25.533,61.398 C25.026,61.398 24.615,60.987 24.615,60.48 C24.615,59.974 25.026,59.562 25.533,59.562 C26.042,59.562 26.453,59.973 26.453,60.48 M14.144,60.48 C14.144,60.987 13.733,61.398 13.226,61.398 C12.718,61.398 12.306,60.987 12.306,60.48 C12.306,59.974 12.718,59.562 13.226,59.562 C13.733,59.562 14.144,59.973 14.144,60.48 M1.838,60.48 C1.838,60.987 1.425,61.398 0.918,61.398 C0.411,61.398 0,60.987 0,60.48 C0,59.974 0.411,59.562 0.918,59.562 C1.425,59.562 1.838,59.973 1.838,60.48 M81.363,50.08 C81.363,50.587 80.952,50.997 80.445,50.997 C79.937,50.997 79.526,50.587 79.526,50.08 C79.526,49.574 79.937,49.163 80.445,49.163 C80.952,49.163 81.364,49.574 81.364,50.08 M69.056,50.08 C69.056,50.587 68.644,50.997 68.136,50.997 C67.63,50.997 67.218,50.587 67.218,50.08 C67.218,49.574 67.63,49.163 68.137,49.163 C68.644,49.163 69.055,49.574 69.055,50.08 M56.749,50.08 C56.749,50.587 56.337,50.997 55.83,50.997 C55.322,50.997 54.911,50.587 54.911,50.08 C54.911,49.574 55.322,49.163 55.83,49.163 C56.337,49.163 56.749,49.574 56.749,50.08 M44.441,50.08 C44.441,50.587 44.029,50.997 43.522,50.997 C43.013,50.997 42.603,50.587 42.603,50.08 C42.603,49.574 43.013,49.163 43.522,49.163 C44.029,49.163 44.441,49.574 44.441,50.08 M32.134,50.08 C32.134,50.587 31.721,50.997 31.215,50.997 C30.707,50.997 30.296,50.587 30.296,50.08 C30.296,49.574 30.707,49.163 31.215,49.163 C31.721,49.163 32.134,49.574 32.134,50.08 M19.825,50.08 C19.825,50.587 19.414,50.997 18.906,50.997 C18.399,50.997 17.987,50.587 17.987,50.08 C17.987,49.574 18.399,49.163 18.906,49.163 C19.414,49.163 19.825,49.574 19.825,50.08 M7.517,50.08 C7.517,50.587 7.106,50.997 6.599,50.997 C6.092,50.997 5.679,50.587 5.679,50.08 C5.679,49.574 6.092,49.163 6.599,49.163 C7.106,49.163 7.517,49.574 7.517,50.08 M75.683,40.626 C75.683,41.132 75.271,41.543 74.764,41.543 C74.257,41.543 73.845,41.132 73.845,40.625 C73.845,40.12 74.257,39.708 74.764,39.708 C75.271,39.708 75.683,40.12 75.683,40.625 M63.376,40.626 C63.376,41.132 62.965,41.543 62.457,41.543 C61.949,41.543 61.538,41.132 61.538,40.625 C61.538,40.12 61.949,39.708 62.457,39.708 C62.965,39.708 63.376,40.12 63.376,40.625 M51.067,40.626 C51.067,41.132 50.657,41.543 50.149,41.543 C49.641,41.543 49.229,41.132 49.229,40.625 C49.229,40.12 49.641,39.708 50.149,39.708 C50.657,39.708 51.067,40.12 51.067,40.625 M38.759,40.626 C38.759,41.132 38.348,41.543 37.841,41.543 C37.334,41.543 36.923,41.132 36.923,40.625 C36.923,40.12 37.334,39.708 37.841,39.708 C38.348,39.708 38.76,40.12 38.76,40.625 M26.453,40.626 C26.453,41.132 26.042,41.543 25.533,41.543 C25.026,41.543 24.615,41.132 24.615,40.625 C24.615,40.12 25.026,39.708 25.533,39.708 C26.042,39.708 26.453,40.12 26.453,40.625 M14.144,40.626 C14.144,41.132 13.733,41.543 13.226,41.543 C12.718,41.543 12.306,41.132 12.306,40.625 C12.306,40.12 12.718,39.708 13.226,39.708 C13.733,39.708 14.144,40.12 14.144,40.625 M1.838,40.626 C1.838,41.132 1.425,41.543 0.918,41.543 C0.411,41.543 0,41.132 0,40.625 C0,40.12 0.411,39.708 0.918,39.708 C1.425,39.708 1.838,40.12 1.838,40.625 M81.363,30.227 C81.363,30.733 80.952,31.144 80.445,31.144 C79.937,31.144 79.526,30.733 79.526,30.227 C79.526,29.72 79.937,29.309 80.445,29.309 C80.952,29.309 81.364,29.72 81.364,30.227 M69.056,30.227 C69.056,30.733 68.644,31.144 68.136,31.144 C67.63,31.144 67.218,30.733 67.218,30.227 C67.218,29.72 67.63,29.309 68.137,29.309 C68.644,29.309 69.055,29.72 69.055,30.227 M56.749,30.227 C56.749,30.733 56.337,31.144 55.83,31.144 C55.322,31.144 54.911,30.733 54.911,30.227 C54.911,29.72 55.322,29.309 55.83,29.309 C56.337,29.309 56.749,29.72 56.749,30.227 M44.441,30.227 C44.441,30.733 44.029,31.144 43.522,31.144 C43.013,31.144 42.603,30.733 42.603,30.227 C42.603,29.72 43.013,29.309 43.522,29.309 C44.029,29.309 44.441,29.72 44.441,30.227 M32.134,30.227 C32.134,30.733 31.721,31.144 31.215,31.144 C30.707,31.144 30.296,30.733 30.296,30.227 C30.296,29.72 30.707,29.309 31.215,29.309 C31.721,29.309 32.134,29.72 32.134,30.227 M19.825,30.227 C19.825,30.733 19.414,31.144 18.906,31.144 C18.399,31.144 17.987,30.733 17.987,30.227 C17.987,29.72 18.399,29.309 18.906,29.309 C19.414,29.309 19.825,29.72 19.825,30.227 M7.517,30.227 C7.517,30.733 7.106,31.144 6.599,31.144 C6.092,31.144 5.679,30.733 5.679,30.227 C5.679,29.72 6.092,29.309 6.599,29.309 C7.106,29.309 7.517,29.72 7.517,30.227 M75.683,20.772 C75.683,21.279 75.271,21.69 74.764,21.69 C74.257,21.69 73.845,21.279 73.845,20.772 C73.845,20.265 74.257,19.855 74.764,19.855 C75.271,19.855 75.683,20.265 75.683,20.772 M63.376,20.772 C63.376,21.279 62.965,21.69 62.457,21.69 C61.949,21.69 61.538,21.279 61.538,20.772 C61.538,20.265 61.949,19.855 62.457,19.855 C62.965,19.855 63.376,20.265 63.376,20.772 M51.067,20.772 C51.067,21.279 50.657,21.69 50.149,21.69 C49.641,21.69 49.229,21.279 49.229,20.772 C49.229,20.265 49.641,19.855 50.149,19.855 C50.657,19.855 51.067,20.265 51.067,20.772 M38.759,20.772 C38.759,21.279 38.348,21.69 37.841,21.69 C37.334,21.69 36.923,21.279 36.923,20.772 C36.923,20.265 37.334,19.855 37.841,19.855 C38.348,19.855 38.76,20.265 38.76,20.772 M26.453,20.772 C26.453,21.279 26.042,21.69 25.533,21.69 C25.026,21.69 24.615,21.279 24.615,20.772 C24.615,20.265 25.026,19.855 25.533,19.855 C26.042,19.855 26.453,20.265 26.453,20.772 M14.144,20.772 C14.144,21.279 13.733,21.69 13.226,21.69 C12.718,21.69 12.306,21.279 12.306,20.772 C12.306,20.265 12.718,19.855 13.226,19.855 C13.733,19.855 14.144,20.265 14.144,20.772 M1.838,20.772 C1.838,21.279 1.425,21.69 0.918,21.69 C0.411,21.69 0,21.279 0,20.772 C0,20.265 0.411,19.855 0.918,19.855 C1.425,19.855 1.838,20.265 1.838,20.772 M81.363,10.372 C81.363,10.878 80.952,11.29 80.445,11.29 C79.937,11.29 79.526,10.879 79.526,10.372 C79.526,9.866 79.937,9.455 80.445,9.455 C80.952,9.455 81.364,9.866 81.364,10.372 M69.056,10.372 C69.056,10.878 68.644,11.29 68.136,11.29 C67.63,11.29 67.218,10.879 67.218,10.372 C67.218,9.866 67.63,9.455 68.137,9.455 C68.644,9.455 69.055,9.866 69.055,10.372 M56.749,10.372 C56.749,10.878 56.337,11.29 55.83,11.29 C55.322,11.29 54.911,10.879 54.911,10.372 C54.911,9.866 55.322,9.455 55.83,9.455 C56.337,9.455 56.749,9.866 56.749,10.372 M44.441,10.372 C44.441,10.878 44.029,11.29 43.522,11.29 C43.013,11.29 42.603,10.879 42.603,10.372 C42.603,9.866 43.013,9.455 43.522,9.455 C44.029,9.455 44.441,9.866 44.441,10.372 M32.134,10.372 C32.134,10.878 31.721,11.29 31.215,11.29 C30.707,11.29 30.296,10.879 30.296,10.372 C30.296,9.866 30.707,9.455 31.215,9.455 C31.721,9.455 32.134,9.866 32.134,10.372 M19.825,10.372 C19.825,10.878 19.414,11.29 18.906,11.29 C18.399,11.29 17.987,10.879 17.987,10.372 C17.987,9.866 18.399,9.455 18.906,9.455 C19.414,9.455 19.825,9.866 19.825,10.372 M7.517,10.372 C7.517,10.878 7.106,11.29 6.599,11.29 C6.092,11.29 5.679,10.879 5.679,10.372 C5.679,9.866 6.092,9.455 6.599,9.455 C7.106,9.455 7.517,9.866 7.517,10.372 M75.683,0.918 C75.683,1.424 75.271,1.835 74.764,1.835 C74.257,1.835 73.845,1.424 73.845,0.918 C73.845,0.412 74.257,0 74.764,0 C75.271,0 75.683,0.412 75.683,0.918 M63.376,0.918 C63.376,1.424 62.965,1.835 62.457,1.835 C61.949,1.835 61.538,1.424 61.538,0.918 C61.538,0.412 61.949,0 62.457,0 C62.965,0 63.376,0.412 63.376,0.918 M51.067,0.918 C51.067,1.424 50.657,1.835 50.149,1.835 C49.641,1.835 49.229,1.424 49.229,0.918 C49.229,0.412 49.641,0 50.149,0 C50.657,0 51.067,0.412 51.067,0.918 M38.759,0.918 C38.759,1.424 38.348,1.835 37.841,1.835 C37.334,1.835 36.923,1.424 36.923,0.918 C36.923,0.412 37.334,0 37.841,0 C38.348,0 38.76,0.412 38.76,0.918 M26.453,0.918 C26.453,1.424 26.042,1.835 25.533,1.835 C25.026,1.835 24.615,1.424 24.615,0.918 C24.615,0.412 25.026,0 25.533,0 C26.041,0 26.452,0.412 26.452,0.918 M14.144,0.918 C14.144,1.424 13.733,1.835 13.226,1.835 C12.718,1.835 12.306,1.424 12.306,0.918 C12.306,0.412 12.718,0 13.226,0 C13.733,0 14.144,0.412 14.144,0.918 M1.838,0.918 C1.838,1.424 1.425,1.835 0.918,1.835 C0.411,1.835 0,1.424 0,0.918 C0,0.412 0.411,0 0.918,0 C1.425,0 1.838,0.412 1.838,0.918" id="Fill-314" fill="#0040E4" mask="url(#mask-6)"></path>
                        </g>
                    </g>
                </g>
            </g>
        </g>
    </g>
</svg>